<svg width="33" height="32" viewBox="0 0 33 32" fill="none" xmlns="http://www.w3.org/2000/svg">
<path d="M10.3281 10.1528C10.6358 10.1169 10.9379 10.2546 11.1126 10.5103C12.3421 12.3093 13.8189 13.0577 15.4574 13.2279C15.5378 12.5269 15.727 11.8343 16.0826 11.2245C16.6042 10.3298 17.4525 9.67111 18.6643 9.42771C20.3388 9.09138 21.6138 9.69779 22.3537 10.4405L23.8468 10.1613C24.1658 10.1017 24.4903 10.2326 24.6787 10.4969C24.8669 10.7611 24.8848 11.1106 24.7243 11.3926L23.2913 13.911C23.422 17.5455 22.412 20.0819 20.2586 21.8294C19.1163 22.7563 17.4817 23.2821 15.6874 23.4444C13.8791 23.608 11.8351 23.4102 9.80319 22.8168C9.4467 22.7128 9.20212 22.3853 9.20344 22.014C9.20474 21.6426 9.45163 21.3169 9.80884 21.2153C10.8307 20.9248 11.6084 20.6735 12.3115 20.2348C11.3128 19.7045 10.5769 19.0113 10.0561 18.2211C9.33216 17.1227 9.06374 15.8982 9.01044 14.7938C8.95716 13.6895 9.11674 12.6667 9.28482 11.9285C9.38049 11.5083 9.49225 11.0861 9.64628 10.6828C9.75815 10.3921 10.0205 10.1886 10.3281 10.1528Z" fill="#CC0000"/>
<circle cx="16.5" cy="16" r="15.25" stroke="#CC0000" stroke-width="1.5"/>
</svg>
