<svg width="33" height="32" viewBox="0 0 33 32" fill="none" xmlns="http://www.w3.org/2000/svg">
<g clip-path="url(#clip0_48_12125)">
<path d="M16.3571 15.9999C16.881 15.9999 17.3295 15.8132 17.7029 15.4399C18.0762 15.0666 18.2625 14.6183 18.2619 14.0951C18.2619 13.5713 18.0752 13.1227 17.7019 12.7494C17.3286 12.3761 16.8803 12.1897 16.3571 12.1904C15.8333 12.1904 15.3848 12.377 15.0114 12.7504C14.6381 13.1237 14.4517 13.5719 14.4524 14.0951C14.4524 14.6189 14.6391 15.0675 15.0124 15.4408C15.3857 15.8142 15.834 16.0005 16.3571 15.9999ZM16.3571 25.5237C13.8016 23.3491 11.893 21.3294 10.6314 19.4646C9.36984 17.5999 8.73873 15.8735 8.7381 14.2856C8.7381 11.9046 9.50413 10.0078 11.0362 8.59512C12.5683 7.18242 14.3419 6.47607 16.3571 6.47607C18.373 6.47607 20.147 7.18242 21.6791 8.59512C23.2111 10.0078 23.9768 11.9046 23.9762 14.2856C23.9762 15.8729 23.3451 17.5992 22.0829 19.4646C20.8206 21.33 18.9121 23.3497 16.3571 25.5237Z" fill="#CC0000"/>
</g>
<circle cx="16.5" cy="16" r="15.25" stroke="#CC0000" stroke-width="1.5"/>
<defs>
<clipPath id="clip0_48_12125">
<rect width="15.7143" height="20" fill="white" transform="translate(8.5 6)"/>
</clipPath>
</defs>
</svg>
