<svg width="56" height="55" viewBox="0 0 56 55" fill="none" xmlns="http://www.w3.org/2000/svg">
<circle cx="28" cy="27.5" r="27.5" fill="#CC0000"/>
<g clip-path="url(#clip0_48_343)">
<path d="M17 16.0001L15.5 17.5001L18.8 22.1216C18.9389 22.3162 19.1224 22.4748 19.335 22.5841C19.5477 22.6935 19.7834 22.7504 20.0225 22.7501H20.1275C20.3247 22.75 20.52 22.7887 20.7023 22.8641C20.8845 22.9395 21.0501 23.0501 21.1895 23.1896L25.202 27.2021L21.2765 31.1831C20.6051 30.9855 19.8969 30.947 19.208 31.0708C18.5191 31.1945 17.8686 31.4771 17.3079 31.8961C16.7473 32.3151 16.292 32.8589 15.9782 33.4845C15.6644 34.1101 15.5006 34.8002 15.5 35.5001C15.5009 36.145 15.6404 36.7822 15.9091 37.3685C16.1777 37.9548 16.5693 38.4765 17.0572 38.8982C17.545 39.32 18.1179 39.6319 18.7369 39.8129C19.3559 39.994 20.0065 40.0398 20.6448 39.9474C21.283 39.855 21.894 39.6265 22.4362 39.2774C22.9784 38.9282 23.4393 38.4666 23.7875 37.9238C24.1358 37.381 24.3633 36.7697 24.4546 36.1313C24.546 35.4929 24.499 34.8423 24.317 34.2236L28.298 30.2981L29.75 31.7501L29.2925 33.1211C29.2046 33.3854 29.192 33.6689 29.2561 33.9399C29.3202 34.2109 29.4585 34.4588 29.6555 34.6556L34.5605 39.5606C34.6995 39.7004 34.8647 39.8113 35.0467 39.887C35.2287 39.9627 35.4239 40.0017 35.621 40.0017C35.8181 40.0017 36.0133 39.9627 36.1953 39.887C36.3773 39.8113 36.5425 39.7004 36.6815 39.5606L39.0605 37.1816C39.2003 37.0426 39.3112 36.8774 39.3869 36.6954C39.4626 36.5134 39.5016 36.3182 39.5016 36.1211C39.5016 35.924 39.4626 35.7288 39.3869 35.5468C39.3112 35.3648 39.2003 35.1996 39.0605 35.0606L34.1555 30.1556C33.9586 29.9586 33.7108 29.8203 33.4398 29.7562C33.1688 29.6921 32.8853 29.7047 32.621 29.7926L31.25 30.2501L29.81 28.8101L33.83 24.8456C34.4969 25.0236 35.1957 25.0461 35.8727 24.9113C36.5496 24.7766 37.1866 24.4881 37.7344 24.0682C38.2823 23.6484 38.7264 23.1083 39.0325 22.4897C39.3386 21.871 39.4985 21.1903 39.5 20.5001C39.5 20.0966 39.4475 19.7051 39.347 19.3346L36.137 22.5461L33.5 22.0001L32.954 19.3646L36.1655 16.1531C35.4015 15.9477 34.5969 15.9473 33.8328 16.152C33.0686 16.3567 32.3719 16.7592 31.8129 17.319C31.2539 17.8787 30.8524 18.576 30.6487 19.3404C30.4451 20.1048 30.4466 20.9094 30.653 21.6731L26.693 25.6901L22.6895 21.6896C22.4082 21.4084 22.2501 21.0269 22.25 20.6291V20.5226C22.25 20.2838 22.193 20.0483 22.0837 19.836C21.9744 19.6236 21.8159 19.4404 21.6215 19.3016L17 16.0001ZM31.469 31.9691C31.5387 31.8993 31.6214 31.8439 31.7126 31.806C31.8037 31.7682 31.9013 31.7488 32 31.7488C32.0987 31.7488 32.1963 31.7682 32.2874 31.806C32.3786 31.8439 32.4613 31.8993 32.531 31.9691L36.902 36.3416C37.0386 36.4831 37.1142 36.6725 37.1125 36.8692C37.1108 37.0658 37.0319 37.2539 36.8929 37.393C36.7538 37.532 36.5657 37.6109 36.3691 37.6126C36.1724 37.6143 35.983 37.5387 35.8415 37.4021L31.469 33.0311C31.3992 32.9615 31.3437 32.8787 31.3059 32.7876C31.2681 32.6965 31.2487 32.5988 31.2487 32.5001C31.2487 32.4015 31.2681 32.3038 31.3059 32.2127C31.3437 32.1216 31.3992 32.0388 31.469 31.9691ZM20 32.5001L20.7065 32.8631L21.5 32.9021L21.9305 33.5696L22.598 34.0001L22.637 34.7936L23 35.5001L22.637 36.2066L22.598 37.0001L21.9305 37.4306L21.5 38.0981L20.7065 38.1371L20 38.5001L19.2935 38.1371L18.5 38.0981L18.0695 37.4306L17.402 37.0001L17.363 36.2066L17 35.5001L17.363 34.7936L17.402 34.0001L18.0695 33.5696L18.5 32.9021L19.2935 32.8631L20 32.5001Z" fill="white"/>
</g>
<defs>
<clipPath id="clip0_48_343">
<rect width="24" height="24" fill="white" transform="translate(15.5 16)"/>
</clipPath>
</defs>
</svg>
