<svg width="33" height="32" viewBox="0 0 33 32" fill="none" xmlns="http://www.w3.org/2000/svg">
<path d="M22.0963 11.0073C21.1985 10.4219 20.5505 9.48535 20.3484 8.39356C20.3047 8.15767 20.2807 7.9149 20.2807 7.6665H17.4154L17.4108 19.1498C17.3626 20.4357 16.3043 21.4678 15.0068 21.4678C14.6035 21.4678 14.2238 21.367 13.8895 21.1911C13.1229 20.7876 12.5982 19.984 12.5982 19.0593C12.5982 17.7311 13.6787 16.6505 15.0068 16.6505C15.2547 16.6505 15.4925 16.6914 15.7175 16.7619V13.8367C15.4847 13.805 15.2481 13.7852 15.0068 13.7852C12.0987 13.7852 9.73285 16.1511 9.73285 19.0593C9.73285 20.8435 10.6243 22.4225 11.9843 23.3773C12.841 23.9787 13.883 24.3332 15.0068 24.3332C17.9149 24.3332 20.2807 21.9674 20.2807 19.0593V13.2362C21.4046 14.0428 22.7814 14.5182 24.2672 14.5182V11.6528C23.4668 11.6528 22.7214 11.4149 22.0963 11.0073Z" fill="#CC0000"/>
<circle cx="16.5" cy="16" r="15.25" stroke="#CC0000" stroke-width="1.5"/>
</svg>
