<svg width="33" height="32" viewBox="0 0 33 32" fill="none" xmlns="http://www.w3.org/2000/svg">
<path d="M19.8333 8.5C22.1345 8.5 24 10.3655 24 12.6667V19.3333C24 21.6345 22.1345 23.5 19.8333 23.5H13.1667C10.8655 23.5 9 21.6345 9 19.3333V12.6667C9 10.3655 10.8655 8.5 13.1667 8.5H19.8333ZM16.5 12.6667C14.659 12.6667 13.1667 14.159 13.1667 16C13.1667 17.8409 14.659 19.3333 16.5 19.3333C18.3409 19.3333 19.8333 17.8409 19.8333 16C19.8333 14.159 18.3409 12.6667 16.5 12.6667ZM16.5 14.3333C17.4205 14.3333 18.1667 15.0795 18.1667 16C18.1667 16.9205 17.4205 17.6667 16.5 17.6667C15.5795 17.6667 14.8333 16.9205 14.8333 16C14.8333 15.0795 15.5795 14.3333 16.5 14.3333ZM20.25 11.4167C19.7898 11.4167 19.4167 11.7898 19.4167 12.25C19.4167 12.7102 19.7898 13.0833 20.25 13.0833C20.7102 13.0833 21.0833 12.7102 21.0833 12.25C21.0833 11.7898 20.7102 11.4167 20.25 11.4167Z" fill="#CC0000"/>
<circle cx="16.5" cy="16" r="15.25" stroke="#CC0000" stroke-width="1.5"/>
</svg>
