<svg width="33" height="32" viewBox="0 0 33 32" fill="none" xmlns="http://www.w3.org/2000/svg">
<path fill-rule="evenodd" clip-rule="evenodd" d="M16.5 7.6665C11.8976 7.6665 8.16663 11.3975 8.16663 15.9998C8.16663 17.5745 8.60417 19.0493 9.36459 20.3068L8.62147 22.8333C8.43348 23.4725 9.02733 24.0663 9.66642 23.8783L12.1931 23.1352C13.4504 23.8957 14.9253 24.3332 16.5 24.3332C21.1023 24.3332 24.8333 20.6022 24.8333 15.9998C24.8333 11.3975 21.1023 7.6665 16.5 7.6665ZM14.6151 17.8854C16.3005 19.5708 17.91 19.793 18.4782 19.8139C19.3425 19.8458 20.1841 19.1857 20.5122 18.42C20.5926 18.2325 20.5725 18.0069 20.4379 17.8343C19.9818 17.2503 19.3644 16.8318 18.7611 16.4152C18.5005 16.2348 18.142 16.2907 17.95 16.5461L17.4495 17.3087C17.3939 17.3933 17.2835 17.4223 17.1956 17.3721C16.8569 17.1784 16.363 16.8482 16.0076 16.4928C15.6527 16.1379 15.3425 15.6663 15.1685 15.3494C15.1227 15.2661 15.148 15.1632 15.2243 15.1065L15.9939 14.535C16.2234 14.3363 16.2637 13.9989 16.0948 13.7517C15.7208 13.2046 15.2851 12.5092 14.6545 12.0492C14.4823 11.9236 14.2645 11.9095 14.0846 11.9866C13.318 12.3151 12.6547 13.1564 12.6866 14.0223C12.7075 14.5906 12.9297 16.2 14.6151 17.8854Z" fill="#CC0000"/>
<circle cx="16.5" cy="16" r="15.25" stroke="#CC0000" stroke-width="1.5"/>
</svg>
