<svg width="33" height="32" viewBox="0 0 33 32" fill="none" xmlns="http://www.w3.org/2000/svg">
<path d="M17.75 24.2401C21.7594 23.6369 24.8333 20.1773 24.8333 15.9998C24.8333 11.3975 21.1023 7.6665 16.5 7.6665C11.8976 7.6665 8.16663 11.3975 8.16663 15.9998C8.16663 20.1773 11.2406 23.6369 15.25 24.2401V18.4998H14C13.3096 18.4998 12.75 17.9402 12.75 17.2498C12.75 16.5595 13.3096 15.9998 14 15.9998H15.25V14.3332C15.25 12.7223 16.5558 11.4165 18.1666 11.4165H18.5833C19.2736 11.4165 19.8333 11.9761 19.8333 12.6665C19.8333 13.3569 19.2736 13.9165 18.5833 13.9165H18.1666C17.9365 13.9165 17.75 14.1031 17.75 14.3332V15.9998H19C19.6903 15.9998 20.25 16.5595 20.25 17.2498C20.25 17.9402 19.6903 18.4998 19 18.4998H17.75V24.2401Z" fill="#CC0000"/>
<circle cx="16.5" cy="16" r="15.25" stroke="#CC0000" stroke-width="1.5"/>
</svg>
