<svg width="25" height="24" viewBox="0 0 25 24" fill="none" xmlns="http://www.w3.org/2000/svg">
<g clip-path="url(#clip0_48_222)">
<path d="M22.7 8.55333L16.2466 7.99333L13.7266 2.06C13.2733 0.98 11.7266 0.98 11.2733 2.06L8.75331 8.00667L2.31331 8.55333C1.13997 8.64667 0.659975 10.1133 1.55331 10.8867L6.44664 15.1267L4.97998 21.42C4.71331 22.5667 5.95331 23.4733 6.96664 22.86L12.5 19.5267L18.0333 22.8733C19.0466 23.4867 20.2866 22.58 20.02 21.4333L18.5533 15.1267L23.4466 10.8867C24.34 10.1133 23.8733 8.64667 22.7 8.55333ZM12.5 17.0333L7.48664 20.06L8.81997 14.3533L4.39331 10.5133L10.2333 10.0067L12.5 4.63333L14.78 10.02L20.62 10.5267L16.1933 14.3667L17.5266 20.0733L12.5 17.0333Z" fill="#D09F1F"/>
</g>
<defs>
<clipPath id="clip0_48_222">
<rect width="24" height="23" fill="white" transform="translate(0.5 0.5)"/>
</clipPath>
</defs>
</svg>
